PathFileType	4	(X/Y/Z)	 s03c0202.trc
DataRate	CameraRate	NumFrames	NumMarkers	Units	OrigDataRate	OrigDataStartFrame	OrigNumFrames
200	200	4	52	mm	200	1751	2000
Frame#	Time	racr			lacr			c7			jug			rlel			rdr			llel			ldr			s2			lic			ric			lasi			rasi			rpsi			lpsi			rgt			lgt			rth1			rth2			rth3			rth4			rlfc			rmfc			rsh1			rsh2			rsh3			rsh4			rlmal			rmmal			rcal			rtoe			rmt5			rmt1			lth1			lth2			lth4			lth3			llfc			lmfc			lsh1			lsh2			lsh3			lsh4			llmal			lmmal			lcal			ltoe			lmt1			lmt5			SBIKE			LBIKE			RBIKE			
		X1	Y1	Z1	X2	Y2	Z2	X3	Y3	Z3	X4	Y4	Z4	X5	Y5	Z5	X6	Y6	Z6	X7	Y7	Z7	X8	Y8	Z8	X9	Y9	Z9	X10	Y10	Z10	X11	Y11	Z11	X12	Y12	Z12	X13	Y13	Z13	X14	Y14	Z14	X15	Y15	Z15	X16	Y16	Z16	X17	Y17	Z17	X18	Y18	Z18	X19	Y19	Z19	X20	Y20	Z20	X21	Y21	Z21	X22	Y22	Z22	X23	Y23	Z23	X24	Y24	Z24	X25	Y25	Z25	X26	Y26	Z26	X27	Y27	Z27	X28	Y28	Z28	X29	Y29	Z29	X30	Y30	Z30	X31	Y31	Z31	X32	Y32	Z32	X33	Y33	Z33	X34	Y34	Z34	X35	Y35	Z35	X36	Y36	Z36	X37	Y37	Z37	X38	Y38	Z38	X39	Y39	Z39	X40	Y40	Z40	X41	Y41	Z41	X42	Y42	Z42	X43	Y43	Z43	X44	Y44	Z44	X45	Y45	Z45	X46	Y46	Z46	X47	Y47	Z47	X48	Y48	Z48	X49	Y49	Z49	X50	Y50	Z50	X51	Y51	Z51	X52	Y52	Z52	
1751	8.7550	453.154034	1445.295271	-69.575426	439.115975	1457.974387	-386.630569	364.800855	1529.053731	-222.058366	408.585656	1364.665175	-225.578627	514.542427	1186.274888	34.475750	724.371788	985.745400	-25.759953	514.468112	1198.740178	-463.030858	735.266799	985.434917	-435.875144	-115.318916	1189.711625	-229.957524	61.841348	1229.420905	-414.016835	49.842806	1230.361300	-42.448813	82.530817	1151.877625	-373.828774	76.100093	1164.268662	-97.016486	-94.271250	1242.303817	-184.727129	-86.808925	1241.091638	-268.302221	9.132816	1144.574801	-30.145926	2.930727	1098.854642	-425.895889	140.424585	1061.802883	-11.212219	229.213373	1060.044639	-8.153106	304.720589	1017.638729	-9.528361	239.458802	1093.239670	-22.365317	421.316805	953.692315	-30.613241	431.360946	942.308262	-156.258729	348.931702	804.911240	-17.539327	327.338722	720.718931	-37.400167	265.067145	658.219399	-44.184788	354.811987	710.450371	-62.801226	200.127433	543.517761	-71.851441	226.463134	557.362164	-159.114044	134.738091	492.710567	-115.417776	444.688476	508.721410	-107.400976	325.694856	483.335215	-41.137918	352.556653	501.636776	-154.672466	68.685846	955.123022	-449.012315	124.829712	889.546084	-457.299089	158.116090	905.800284	-455.727440	143.317219	802.642187	-446.638422	215.888315	692.233703	-434.830041	227.540428	681.334962	-313.158490	127.768043	540.330860	-452.570055	117.765604	456.726377	-432.078197	63.654698	385.219598	-422.731174	148.347642	447.900693	-410.484289	12.343366	267.956244	-398.698893	50.514493	279.702965	-310.510615	-51.666760	218.159099	-346.998153	256.546079	215.390778	-358.842968	165.232985	209.937966	-313.394298	135.625497	188.232579	-427.372472	-215.090945	945.483469	-230.977741	-6.097361	83.960473	-435.066265	-11.532855	81.162488	-34.684308	
1752	8.7600	453.203115	1445.359845	-69.605413	439.166784	1458.037174	-386.715370	364.775500	1529.106344	-222.101433	408.663592	1364.671412	-225.632994	514.565997	1186.281974	34.448752	724.373844	985.751184	-25.754883	514.497767	1198.747302	-463.071350	735.301087	985.444352	-435.910495	-115.301953	1189.811437	-229.915742	61.913760	1229.394573	-414.015891	49.887270	1230.353149	-42.482330	82.607488	1151.783687	-373.908691	76.168294	1164.225262	-97.068060	-94.270710	1242.297408	-184.766215	-86.797670	1241.065436	-268.354774	9.177517	1144.575546	-30.176489	2.923308	1098.807601	-425.913892	140.454287	1061.802622	-11.247187	229.267868	1060.052530	-8.203410	304.743676	1017.654092	-9.589209	239.508221	1093.254580	-22.412230	421.344517	953.714746	-30.671385	431.379502	942.296016	-156.332729	348.955281	804.928841	-17.577041	327.332798	720.740986	-37.433919	265.047654	658.253021	-44.195482	354.824559	710.475286	-62.845408	200.116477	543.542136	-71.857959	226.424201	557.407260	-159.120905	134.720995	492.730229	-115.416009	444.661229	508.742816	-107.399211	325.677907	483.346883	-41.134919	352.515637	501.656422	-154.687880	68.680341	955.072341	-449.002654	124.815316	889.490542	-457.295990	158.106384	905.733586	-455.716658	143.310907	802.581106	-446.607529	215.855479	692.175986	-434.808309	227.538053	681.294285	-313.156973	127.736665	540.276596	-452.518266	118.374085	457.581892	-433.883388	63.621829	385.178638	-422.687895	148.277427	447.839167	-410.374593	12.342868	267.921404	-398.636725	50.481629	279.684419	-310.459694	-51.650166	218.087984	-346.935954	256.573671	215.398264	-358.849670	165.259085	209.936815	-313.383776	135.632419	188.244666	-427.366764	-215.066519	945.462311	-230.921864	-6.102291	83.976638	-435.055737	-11.581055	81.213795	-34.700106	
1753	8.7650	453.219100	1445.443351	-69.603683	439.205973	1458.093052	-386.746232	364.777202	1529.143559	-222.151636	408.719298	1364.678900	-225.656129	514.582546	1186.295067	34.418662	724.381935	985.773145	-25.757056	514.528247	1198.752396	-463.095457	735.349246	985.442170	-435.937915	-115.259059	1189.904206	-229.896291	61.984600	1229.369241	-414.078371	49.949677	1230.349141	-42.540701	82.674949	1151.673272	-374.029651	76.236532	1164.182062	-97.119314	-94.239549	1242.268045	-184.813284	-86.778743	1241.042626	-268.410532	9.208888	1144.582827	-30.207261	2.950324	1098.750505	-425.928060	140.482070	1061.814143	-11.284143	229.302820	1060.049800	-8.253707	304.788623	1017.655411	-9.644864	239.537811	1093.254606	-22.474604	421.377355	953.700168	-30.726344	431.400156	942.297829	-156.415707	348.968187	804.920498	-17.636905	327.351041	720.763017	-37.455112	265.042884	658.262514	-44.229681	354.793294	710.466248	-62.901907	200.096831	543.567027	-71.866047	226.424763	557.407841	-159.121765	134.690646	492.739289	-115.402948	444.633877	508.758997	-107.408504	325.658419	483.366244	-41.145228	352.491361	501.670052	-154.692772	68.680069	955.024449	-449.003002	124.811573	889.421460	-457.289357	158.107863	905.679656	-455.719823	143.296763	802.527608	-446.599267	215.842690	692.115537	-434.806634	227.532812	681.240825	-313.133714	127.696741	540.244246	-452.516681	118.377852	457.679644	-434.012146	63.596870	385.149901	-422.660796	148.402224	447.779400	-410.443770	12.328881	267.895899	-398.622177	50.445330	279.622688	-310.380173	-51.655212	218.003543	-346.859463	256.567655	215.410074	-358.852242	165.275961	209.915175	-313.377723	135.618973	188.226385	-427.352198	-215.070109	945.462703	-230.931998	-6.111466	83.968565	-435.055384	-11.586363	81.235111	-34.708032	
1754	8.7700	453.265543	1445.507653	-69.629348	439.269658	1458.135065	-386.796333	364.754834	1529.171001	-222.182899	408.829089	1364.709056	-225.697886	514.592404	1186.304468	34.389022	724.379078	985.772724	-25.786858	514.543076	1198.755971	-463.115725	735.400390	985.454420	-435.979449	-115.259539	1189.881860	-229.909259	62.070779	1229.332851	-414.110458	50.021335	1230.331640	-42.588132	82.708427	1151.576432	-374.060662	76.304807	1164.139060	-97.170245	-94.229793	1242.256225	-184.854924	-86.765789	1241.014675	-268.470442	9.242757	1144.604321	-30.240140	2.972813	1098.698457	-425.944724	140.517728	1061.812077	-11.324827	229.340677	1060.053585	-8.312757	304.819842	1017.644011	-9.701946	239.562296	1093.249973	-22.538356	421.382873	953.681517	-30.789655	431.418591	942.281452	-156.485272	349.001048	804.915832	-17.670448	327.343216	720.778534	-37.487473	265.052627	658.258671	-44.242687	354.810440	710.462813	-62.920136	200.071231	543.582546	-71.855976	226.398316	557.426460	-159.141011	134.691504	492.746104	-115.427703	444.624124	508.764410	-107.395594	325.662356	483.374477	-41.159177	352.484689	501.666567	-154.694898	68.668085	954.969263	-448.993353	124.799648	889.361163	-457.285624	158.091901	905.613852	-455.743076	143.287399	802.470882	-446.586042	215.825330	692.032519	-434.798192	227.507705	681.209517	-313.144892	127.651775	540.205542	-452.483578	118.330265	457.637198	-433.953774	63.557335	385.114867	-422.620013	148.376731	447.746100	-410.432901	12.300387	267.857062	-398.581017	50.418974	279.569860	-310.347825	-51.666931	217.938817	-346.814824	256.540305	215.438656	-358.862458	165.248426	209.899329	-313.337384	135.603956	188.210613	-427.331833	-215.067487	945.446865	-230.931913	-6.094733	83.976932	-435.070107	-11.567013	81.205967	-34.699048	
